<?xml version="1.0" encoding="UTF-8"?> <svg xmlns="http://www.w3.org/2000/svg" version="1.1" style="font-family:Lato, 'Helvetica Neue', Helvetica, Arial, sans-serif;font-size:18px;background-color:white;text-rendering:optimizeLegibility;-webkit-font-smoothing:antialiased" width="850" height="600" viewBox="0 0 850 600"><g class="HeaderView"><g transform="translate(774, 15) scale(0.29)"><svg xmlns="http://www.w3.org/2000/svg" width="210" height="120" viewBox="0 0 210 120" fill="none"><g clip-path="url(#clip0)"><path d="M0 0h210v107.89H0V0z" fill="#002147"></path><path d="M40.98 32.25c0 2.36-.38 4.53-1.12 6.51a14.26 14.26 0 01-8.1 8.4c-1.9.78-4.02 1.17-6.34 1.17-2.31 0-4.42-.39-6.33-1.17a14.31 14.31 0 01-8.08-8.4 18.29 18.29 0 01-1.12-6.51c0-2.36.38-4.53 1.12-6.5.75-1.97 1.8-3.67 3.17-5.1 1.37-1.43 3-2.55 4.9-3.34 1.92-.8 4.03-1.19 6.34-1.19 2.32 0 4.43.4 6.34 1.19 1.92.8 3.56 1.9 4.93 3.34a14.87 14.87 0 013.17 5.1 18.1 18.1 0 011.12 6.5zm-4.38 0c0-1.94-.26-3.68-.8-5.22a10.91 10.91 0 00-2.24-3.89 9.68 9.68 0 00-3.52-2.46 11.95 11.95 0 00-4.62-.86c-1.68 0-3.21.28-4.6.86a9.88 9.88 0 00-3.54 2.46 10.91 10.91 0 00-2.24 3.9c-.53 1.53-.8 3.27-.8 5.2 0 1.94.27 3.68.8 5.22a11.17 11.17 0 002.24 3.9 10.01 10.01 0 003.55 2.44c1.38.56 2.9.83 4.6.83 1.7 0 3.24-.27 4.61-.83a9.8 9.8 0 003.52-2.44 11.17 11.17 0 002.25-3.9c.53-1.54.8-3.28.8-5.21zm26.22-6.54V48H60.5c-.56 0-.9-.27-1.05-.81l-.31-2.4a12.45 12.45 0 01-3.26 2.6c-1.2.64-2.58.96-4.13.96-1.22 0-2.3-.2-3.24-.6a6.52 6.52 0 01-2.33-1.7 7.37 7.37 0 01-1.43-2.67c-.3-1.04-.46-2.2-.46-3.45V25.7h3.91v14.22c0 1.68.38 2.99 1.15 3.91.77.93 1.96 1.39 3.54 1.39 1.16 0 2.24-.27 3.23-.82a10.42 10.42 0 002.8-2.28V25.7h3.91zm8.61 4.47a9.94 9.94 0 012.6-3.56 5.64 5.64 0 013.76-1.3c.47 0 .92.05 1.34.15.44.1.83.27 1.17.49L80 28.88c-.09.37-.3.55-.66.55-.2 0-.5-.04-.9-.13a6.21 6.21 0 00-3.24.18c-.54.2-1.03.5-1.47.92-.42.4-.81.9-1.17 1.5-.33.58-.64 1.26-.92 2.02V48h-3.94V25.71h2.25c.42 0 .72.08.88.25.16.16.27.44.33.83l.26 3.39zm61.16-13.7L122.75 48h-3.82l-7.99-24.05a21.95 21.95 0 01-.42-1.58 38.36 38.36 0 01-.44 1.58L102.05 48h-3.83L88.4 16.47h3.54c.38 0 .7.1.95.29.26.2.43.43.5.73l6.52 21.9c.1.4.2.83.28 1.28.1.46.2.94.29 1.46l.3-1.46c.12-.47.25-.9.38-1.27l7.41-21.91c.1-.25.26-.48.51-.69.27-.22.58-.33.95-.33h1.23c.38 0 .69.1.92.29.24.2.41.43.53.73l7.4 21.9a28.4 28.4 0 01.68 2.62 29.52 29.52 0 01.52-2.61l6.54-21.91c.07-.27.23-.5.48-.7.27-.21.58-.32.95-.32h3.32zm9.35 8.88c1.63 0 3.1.27 4.4.82a9.43 9.43 0 015.46 5.94c.5 1.4.74 2.98.74 4.73 0 1.76-.25 3.34-.74 4.75a9.43 9.43 0 01-5.46 5.92c-1.3.52-2.77.79-4.4.79-1.64 0-3.12-.27-4.44-.8a9.42 9.42 0 01-3.35-2.3c-.92-1-1.63-2.2-2.13-3.61-.49-1.41-.73-3-.73-4.75s.24-3.33.73-4.73c.5-1.43 1.2-2.64 2.13-3.63.93-1 2.04-1.77 3.35-2.31 1.32-.55 2.8-.82 4.44-.82zm0 19.89c2.2 0 3.84-.73 4.93-2.2 1.08-1.48 1.63-3.54 1.63-6.18 0-2.66-.55-4.72-1.63-6.2-1.09-1.49-2.73-2.23-4.93-2.23-1.12 0-2.09.2-2.93.57-.82.39-1.5.94-2.06 1.65-.55.72-.96 1.61-1.24 2.67-.26 1.04-.4 2.22-.4 3.54 0 2.64.55 4.7 1.64 6.18 1.1 1.47 2.76 2.2 4.99 2.2zm17.97-15.07a9.94 9.94 0 012.6-3.56 5.64 5.64 0 013.76-1.3c.47 0 .91.05 1.34.15.44.1.83.27 1.16.49l-.28 2.92c-.09.37-.31.55-.66.55-.2 0-.5-.04-.9-.13a6.2 6.2 0 00-3.24.18c-.54.2-1.03.5-1.47.92-.43.4-.82.9-1.17 1.5a13.1 13.1 0 00-.92 2.02V48h-3.94V25.71h2.24c.43 0 .72.08.88.25.17.16.28.44.33.83l.27 3.39zm15.04-14.59V48h-3.92V15.6h3.92zm19.55 15.43a6.22 6.22 0 00-2.38-2.05 6.7 6.7 0 00-2.86-.6c-2.07 0-3.66.75-4.77 2.23-1.12 1.48-1.68 3.6-1.68 6.33 0 1.46.13 2.7.38 3.74a7.29 7.29 0 001.1 2.56 4.35 4.35 0 001.78 1.45c.7.3 1.5.46 2.4.46 1.29 0 2.41-.3 3.36-.88a9.6 9.6 0 002.67-2.49V31.02zm3.91-15.43V48h-2.33c-.56 0-.9-.27-1.06-.81l-.35-2.71a12.13 12.13 0 01-3.25 2.77 8.28 8.28 0 01-4.23 1.06 7.31 7.31 0 01-6.14-2.9c-.73-.96-1.3-2.15-1.69-3.57a18.35 18.35 0 01.07-9.48 11.29 11.29 0 011.89-3.7 8.7 8.7 0 017.06-3.34 7.96 7.96 0 016.12 2.62V15.59h3.91zM46.61 70.71V93H42.7V70.71h3.91zm.84-7c0 .39-.08.75-.24 1.09-.15.32-.35.61-.62.88-.25.25-.55.44-.9.59a2.67 2.67 0 01-2.16 0 2.9 2.9 0 01-1.45-1.47 2.67 2.67 0 010-2.16c.15-.35.35-.65.6-.9.25-.27.53-.47.85-.62a2.67 2.67 0 012.16 0c.35.15.65.35.9.62.27.25.47.55.62.9.16.34.24.7.24 1.08zm7.97 10.24c.49-.54 1-1.04 1.54-1.48a9.85 9.85 0 013.66-1.84 8.96 8.96 0 015.43.35c.94.4 1.72.97 2.33 1.71.63.74 1.11 1.62 1.43 2.67.32 1.04.49 2.19.49 3.45V93h-3.94V78.81c0-1.69-.4-3-1.17-3.92-.76-.93-1.93-1.4-3.5-1.4-1.15 0-2.24.27-3.25.83-1 .56-1.92 1.31-2.77 2.27V93h-3.94V70.71h2.35c.56 0 .9.28 1.04.82l.3 2.42zm57.7 3.3c0 2.36-.37 4.5-1.11 6.44a14.3 14.3 0 01-3.17 4.98c-1.37 1.37-3 2.45-4.93 3.2-1.9.76-4.02 1.13-6.33 1.13H85.8V61.47h11.77c2.31 0 4.42.39 6.33 1.15a13.8 13.8 0 018.1 8.18 17.75 17.75 0 011.12 6.45zm-4.37 0c0-1.94-.26-3.67-.8-5.2a10.94 10.94 0 00-2.23-3.87 9.57 9.57 0 00-3.53-2.42 12.23 12.23 0 00-4.61-.83h-7.5v24.62h7.5c1.7 0 3.24-.28 4.61-.84a9.7 9.7 0 003.53-2.4 10.94 10.94 0 002.24-3.87c.53-1.53.8-3.26.8-5.2zm19.8 5.72c-1.8.06-3.34.2-4.62.44-1.26.22-2.3.51-3.1.88-.8.36-1.37.8-1.74 1.3-.35.5-.53 1.05-.53 1.67 0 .58.1 1.1.3 1.52a3 3 0 00.76 1.05c.34.27.73.46 1.17.6.45.11.94.17 1.45.17a7.28 7.28 0 003.5-.81 11.95 11.95 0 002.82-2.2v-4.62zm-12.65-9.11a12.73 12.73 0 013.98-2.66c1.43-.59 3-.88 4.73-.88 1.25 0 2.36.2 3.33.61a6.81 6.81 0 013.94 4.38c.33 1.04.5 2.19.5 3.43V93h-1.74a1.8 1.8 0 01-.88-.18c-.2-.13-.36-.38-.48-.74l-.44-2.12c-.59.55-1.16 1.03-1.72 1.46a9.48 9.48 0 01-3.74 1.7c-.69.15-1.46.23-2.3.23-.87 0-1.69-.12-2.45-.35a5.34 5.34 0 01-3.34-2.93 6.64 6.64 0 01-.49-2.64c0-.88.25-1.72.73-2.53a6.33 6.33 0 012.35-2.17c1.09-.63 2.5-1.15 4.25-1.54 1.75-.41 3.89-.65 6.42-.7v-1.75c0-1.73-.37-3.03-1.12-3.91-.75-.9-1.84-1.34-3.28-1.34-.97 0-1.78.12-2.44.37-.64.23-1.2.5-1.7.81l-1.23.82c-.33.23-.67.35-1 .35-.27 0-.5-.07-.69-.2a2.1 2.1 0 01-.48-.53l-.7-1.25zm27.67 19.5c-1.76 0-3.12-.5-4.07-1.48-.94-.98-1.41-2.4-1.41-4.25V74h-2.68a.9.9 0 01-.6-.2c-.16-.14-.24-.36-.24-.66v-1.56l3.65-.46.9-6.89c.05-.22.14-.4.29-.52a.88.88 0 01.62-.22H142v7.67h6.44V74h-6.44v13.38c0 .94.22 1.63.68 2.09.45.45 1.04.68 1.76.68a3.21 3.21 0 001.85-.53l.55-.35c.16-.12.3-.18.41-.18.2 0 .4.13.55.38l1.15 1.87a7.45 7.45 0 01-2.44 1.5c-.96.35-1.94.52-2.95.52zm19.68-10.4c-1.8.07-3.34.21-4.62.45-1.26.22-2.3.51-3.1.88-.8.36-1.37.8-1.74 1.3-.35.5-.53 1.05-.53 1.67 0 .58.1 1.1.3 1.52.18.42.44.77.76 1.05.34.27.73.46 1.17.6.45.11.94.17 1.45.17a7.3 7.3 0 003.5-.81 12.04 12.04 0 002.82-2.2v-4.62zm-12.65-9.1a12.72 12.72 0 013.99-2.66c1.42-.59 3-.88 4.72-.88 1.25 0 2.36.2 3.33.61a6.81 6.81 0 013.94 4.38c.33 1.04.5 2.19.5 3.43V93h-1.74a1.8 1.8 0 01-.88-.18c-.2-.13-.36-.38-.48-.74l-.44-2.12c-.59.55-1.16 1.03-1.72 1.46a9.48 9.48 0 01-3.74 1.7c-.69.15-1.46.23-2.3.23-.87 0-1.69-.12-2.45-.35a5.33 5.33 0 01-3.34-2.93 6.62 6.62 0 01-.49-2.64c0-.88.25-1.72.73-2.53a6.33 6.33 0 012.35-2.17c1.09-.63 2.5-1.15 4.25-1.54 1.74-.41 3.89-.65 6.42-.7v-1.75c0-1.73-.37-3.03-1.12-3.91-.75-.9-1.84-1.34-3.28-1.34-.97 0-1.78.12-2.44.37-.64.23-1.2.5-1.7.81-.46.3-.87.57-1.22.82-.34.23-.68.35-1.02.35-.26 0-.49-.07-.68-.2-.19-.14-.35-.32-.48-.53l-.7-1.25z" fill="#fff"></path><path fill="#D42B21" d="M0 106.79h210V120H0z"></path></g><defs><clipPath id="clip0"><path fill="#fff" d="M0 0h210v120H0z"></path></clipPath></defs></svg></g><a href="https://ourworldindata.org/grapher/co-emissions-by-sector" style="font-family:&quot;Playfair Display&quot;, Georgia, &quot;Times New Roman&quot;, serif"><text font-size="25.20" x="15.0" y="35.2" fill="#555"><tspan x="15" y="35.160000000000004">CO₂ emissions by sector, World</tspan></text></a></g><g class="LineChart"><defs><clipPath id="boundsClip-15"><rect x="83.224" y="0" width="830" height="973"></rect></clipPath></defs><g class="AxisBoxView"><g class="HorizontalAxis"><line x1="93.2" y1="535.3" x2="93.2" y2="539.3" stroke="#ccc"></line><line x1="194.8" y1="535.3" x2="194.8" y2="539.3" stroke="#ccc"></line><line x1="296.4" y1="535.3" x2="296.4" y2="539.3" stroke="#ccc"></line><line x1="398" y1="535.3" x2="398" y2="539.3" stroke="#ccc"></line><line x1="499.6" y1="535.3" x2="499.6" y2="539.3" stroke="#ccc"></line><line x1="621.5" y1="535.3" x2="621.5" y2="539.3" stroke="#ccc"></line><text x="93.2" y="556.5" fill="#666" text-anchor="middle" font-size="16.2">1990</text><text x="194.8" y="556.5" fill="#666" text-anchor="middle" font-size="16.2">1995</text><text x="296.4" y="556.5" fill="#666" text-anchor="middle" font-size="16.2">2000</text><text x="398" y="556.5" fill="#666" text-anchor="middle" font-size="16.2">2005</text><text x="499.6" y="556.5" fill="#666" text-anchor="middle" font-size="16.2">2010</text><text x="621.5" y="556.5" fill="#666" text-anchor="middle" font-size="16.2">2016</text></g><g class="VerticalAxis"><text x="88.22" y="535.3" fill="#666" text-anchor="end" font-size="16.2">0 t</text><text x="88.22" y="474.4" fill="#666" text-anchor="end" font-size="16.2">2 billion t</text><text x="88.22" y="413.6" fill="#666" text-anchor="end" font-size="16.2">4 billion t</text><text x="88.22" y="352.7" fill="#666" text-anchor="end" font-size="16.2">6 billion t</text><text x="88.22" y="291.9" fill="#666" text-anchor="end" font-size="16.2">8 billion t</text><text x="88.22" y="231" fill="#666" text-anchor="end" font-size="16.2">10 billion t</text><text x="88.22" y="170.2" fill="#666" text-anchor="end" font-size="16.2">12 billion t</text><text x="88.22" y="109.3" fill="#666" text-anchor="end" font-size="16.2">14 billion t</text></g><g class="AxisGridLines horizontalLines"><line x1="93.22" y1="535.3" x2="621.53" y2="535.3" stroke="#ccc"></line><line x1="93.22" y1="474.4" x2="621.53" y2="474.4" stroke="#ddd" stroke-dasharray="3,2"></line><line x1="93.22" y1="413.6" x2="621.53" y2="413.6" stroke="#ddd" stroke-dasharray="3,2"></line><line x1="93.22" y1="352.7" x2="621.53" y2="352.7" stroke="#ddd" stroke-dasharray="3,2"></line><line x1="93.22" y1="291.9" x2="621.53" y2="291.9" stroke="#ddd" stroke-dasharray="3,2"></line><line x1="93.22" y1="231" x2="621.53" y2="231" stroke="#ddd" stroke-dasharray="3,2"></line><line x1="93.22" y1="170.2" x2="621.53" y2="170.2" stroke="#ddd" stroke-dasharray="3,2"></line><line x1="93.22" y1="109.3" x2="621.53" y2="109.3" stroke="#ddd" stroke-dasharray="3,2"></line></g></g><g clip-path="url(#boundsClip-15)"><g class="HeightedLegend" style="cursor:default"><g class="legendMark"><rect x="621.53" y="71.95" width="138.005" height="13.5" fill="#fff" opacity="0"></rect><text font-size="13.50" x="625.5" y="82.8" fill="#4C6A9C"><tspan x="625.53" y="82.75">Electricity &amp; Heat</tspan></text></g><g class="legendMark"><rect x="621.53" y="289.25" width="92.915" height="13.5" fill="#fff" opacity="0"></rect><text font-size="13.50" x="625.5" y="300.1" fill="#00823F"><tspan x="625.53" y="300.05">Transport</tspan></text></g><g class="legendMark"><rect x="621.53" y="342.65" width="213.47" height="13.5" fill="#fff" opacity="0"></rect><text font-size="13.50" x="625.5" y="353.4" fill="#883039"><tspan x="625.53" y="353.45">Manufacturing &amp; Construction</tspan></text></g><g class="legendMark"><rect x="621.53" y="438.6" width="89.945" height="13.5" fill="#fff" opacity="0"></rect><text font-size="13.50" x="625.5" y="449.4" fill="#CF0A66"><tspan x="625.53" y="449.40000000000003">Buildings</tspan></text></g><g class="legendMark"><rect x="621.53" y="454.1" width="210.5" height="13.5" fill="#fff" opacity="0"></rect><text font-size="13.50" x="625.5" y="464.9" fill="#6D3E91"><tspan x="625.53" y="464.90000000000003">Land Use Change &amp; Forestry</tspan></text></g><g class="legendMark"><rect x="621.53" y="484.05" width="83.195" height="13.5" fill="#fff" opacity="0"></rect><text font-size="13.50" x="625.5" y="494.9" fill="#00847E"><tspan x="625.53" y="494.85">Industry</tspan></text></g><g class="legendMark"><rect x="621.53" y="506.3" width="167.57000000000002" height="13.5" fill="#fff" opacity="0"></rect><text font-size="13.50" x="625.5" y="517.1" fill="#B13507"><tspan x="625.53" y="517.0999999999999">Other fuel combustion</tspan></text></g><g class="legendMark"><rect x="621.53" y="521.8" width="146.24" height="13.5" fill="#fff" opacity="0"></rect><text font-size="13.50" x="625.5" y="532.6" fill="#3C4E66"><tspan x="625.53" y="532.5999999999999">Fugitive emissions</tspan></text></g></g><g class="Lines"><rect x="93" y="70" width="528" height="465" fill="rgba(255,255,255,0)" opacity="0"></rect><g class="key-World_0"><path stroke="#CF0A66" stroke-linecap="round" d="M93 456L114 455L134 459L154 457L175 459L195 457L215 455L236 455L256 460L276 458L296 458L317 457L337 458L357 455L378 454L398 454L418 455L439 455L459 453L479 455L500 453L520 455L540 456L561 453L581 454L601 454L622 453" fill="none" stroke-width="1.5"></path><g fill="#CF0A66"><circle cx="93" cy="456" r="2"></circle><circle cx="114" cy="455" r="2"></circle><circle cx="134" cy="459" r="2"></circle><circle cx="154" cy="457" r="2"></circle><circle cx="175" cy="459" r="2"></circle><circle cx="195" cy="457" r="2"></circle><circle cx="215" cy="455" r="2"></circle><circle cx="236" cy="455" r="2"></circle><circle cx="256" cy="460" r="2"></circle><circle cx="276" cy="458" r="2"></circle><circle cx="296" cy="458" r="2"></circle><circle cx="317" cy="457" r="2"></circle><circle cx="337" cy="458" r="2"></circle><circle cx="357" cy="455" r="2"></circle><circle cx="378" cy="454" r="2"></circle><circle cx="398" cy="454" r="2"></circle><circle cx="418" cy="455" r="2"></circle><circle cx="439" cy="455" r="2"></circle><circle cx="459" cy="453" r="2"></circle><circle cx="479" cy="455" r="2"></circle><circle cx="500" cy="453" r="2"></circle><circle cx="520" cy="455" r="2"></circle><circle cx="540" cy="456" r="2"></circle><circle cx="561" cy="453" r="2"></circle><circle cx="581" cy="454" r="2"></circle><circle cx="601" cy="454" r="2"></circle><circle cx="622" cy="453" r="2"></circle></g></g><g class="key-World_1"><path stroke="#00847E" stroke-linecap="round" d="M93 520L114 520L134 519L154 518L175 517L195 516L215 516L236 515L256 515L276 514L296 514L317 513L337 511L357 509L378 508L398 506L418 503L439 501L459 501L479 500L500 497L520 494L540 493L561 492L581 490L601 492L622 491" fill="none" stroke-width="1.5"></path><g fill="#00847E"><circle cx="93" cy="520" r="2"></circle><circle cx="114" cy="520" r="2"></circle><circle cx="134" cy="519" r="2"></circle><circle cx="154" cy="518" r="2"></circle><circle cx="175" cy="517" r="2"></circle><circle cx="195" cy="516" r="2"></circle><circle cx="215" cy="516" r="2"></circle><circle cx="236" cy="515" r="2"></circle><circle cx="256" cy="515" r="2"></circle><circle cx="276" cy="514" r="2"></circle><circle cx="296" cy="514" r="2"></circle><circle cx="317" cy="513" r="2"></circle><circle cx="337" cy="511" r="2"></circle><circle cx="357" cy="509" r="2"></circle><circle cx="378" cy="508" r="2"></circle><circle cx="398" cy="506" r="2"></circle><circle cx="418" cy="503" r="2"></circle><circle cx="439" cy="501" r="2"></circle><circle cx="459" cy="501" r="2"></circle><circle cx="479" cy="500" r="2"></circle><circle cx="500" cy="497" r="2"></circle><circle cx="520" cy="494" r="2"></circle><circle cx="540" cy="493" r="2"></circle><circle cx="561" cy="492" r="2"></circle><circle cx="581" cy="490" r="2"></circle><circle cx="601" cy="492" r="2"></circle><circle cx="622" cy="491" r="2"></circle></g></g><g class="key-World_2"><path stroke="#6D3E91" stroke-linecap="round" d="M93 426L114 426L134 426L154 426L175 426L195 426L215 437L236 416L256 431L276 438L296 440L317 426L337 405L357 414L378 407L398 412L418 437L439 449L459 449L479 441L500 450L520 448L540 448L561 449L581 445L601 438L622 454" fill="none" stroke-width="1.5"></path><g fill="#6D3E91"><circle cx="93" cy="426" r="2"></circle><circle cx="114" cy="426" r="2"></circle><circle cx="134" cy="426" r="2"></circle><circle cx="154" cy="426" r="2"></circle><circle cx="175" cy="426" r="2"></circle><circle cx="195" cy="426" r="2"></circle><circle cx="215" cy="437" r="2"></circle><circle cx="236" cy="416" r="2"></circle><circle cx="256" cy="431" r="2"></circle><circle cx="276" cy="438" r="2"></circle><circle cx="296" cy="440" r="2"></circle><circle cx="317" cy="426" r="2"></circle><circle cx="337" cy="405" r="2"></circle><circle cx="357" cy="414" r="2"></circle><circle cx="378" cy="407" r="2"></circle><circle cx="398" cy="412" r="2"></circle><circle cx="418" cy="437" r="2"></circle><circle cx="439" cy="449" r="2"></circle><circle cx="459" cy="449" r="2"></circle><circle cx="479" cy="441" r="2"></circle><circle cx="500" cy="450" r="2"></circle><circle cx="520" cy="448" r="2"></circle><circle cx="540" cy="448" r="2"></circle><circle cx="561" cy="449" r="2"></circle><circle cx="581" cy="445" r="2"></circle><circle cx="601" cy="438" r="2"></circle><circle cx="622" cy="454" r="2"></circle></g></g><g class="key-World_3"><path stroke="#B13507" stroke-linecap="round" d="M93 512L114 512L134 515L154 514L175 515L195 517L215 519L236 518L256 518L276 518L296 520L317 519L337 519L357 519L378 518L398 517L418 517L439 517L459 517L479 517L500 516L520 517L540 516L561 516L581 516L601 516L622 517" fill="none" stroke-width="1.5"></path><g fill="#B13507"><circle cx="93" cy="512" r="2"></circle><circle cx="114" cy="512" r="2"></circle><circle cx="134" cy="515" r="2"></circle><circle cx="154" cy="514" r="2"></circle><circle cx="175" cy="515" r="2"></circle><circle cx="195" cy="517" r="2"></circle><circle cx="215" cy="519" r="2"></circle><circle cx="236" cy="518" r="2"></circle><circle cx="256" cy="518" r="2"></circle><circle cx="276" cy="518" r="2"></circle><circle cx="296" cy="520" r="2"></circle><circle cx="317" cy="519" r="2"></circle><circle cx="337" cy="519" r="2"></circle><circle cx="357" cy="519" r="2"></circle><circle cx="378" cy="518" r="2"></circle><circle cx="398" cy="517" r="2"></circle><circle cx="418" cy="517" r="2"></circle><circle cx="439" cy="517" r="2"></circle><circle cx="459" cy="517" r="2"></circle><circle cx="479" cy="517" r="2"></circle><circle cx="500" cy="516" r="2"></circle><circle cx="520" cy="517" r="2"></circle><circle cx="540" cy="516" r="2"></circle><circle cx="561" cy="516" r="2"></circle><circle cx="581" cy="516" r="2"></circle><circle cx="601" cy="516" r="2"></circle><circle cx="622" cy="517" r="2"></circle></g></g><g class="key-World_4"><path stroke="#00823F" stroke-linecap="round" d="M93 396L114 394L134 391L154 390L175 387L195 383L215 377L236 374L256 370L276 366L296 360L317 359L337 355L357 351L378 342L398 338L418 334L439 328L459 327L479 331L500 323L520 320L540 317L561 312L581 308L601 301L622 296" fill="none" stroke-width="1.5"></path><g fill="#00823F"><circle cx="93" cy="396" r="2"></circle><circle cx="114" cy="394" r="2"></circle><circle cx="134" cy="391" r="2"></circle><circle cx="154" cy="390" r="2"></circle><circle cx="175" cy="387" r="2"></circle><circle cx="195" cy="383" r="2"></circle><circle cx="215" cy="377" r="2"></circle><circle cx="236" cy="374" r="2"></circle><circle cx="256" cy="370" r="2"></circle><circle cx="276" cy="366" r="2"></circle><circle cx="296" cy="360" r="2"></circle><circle cx="317" cy="359" r="2"></circle><circle cx="337" cy="355" r="2"></circle><circle cx="357" cy="351" r="2"></circle><circle cx="378" cy="342" r="2"></circle><circle cx="398" cy="338" r="2"></circle><circle cx="418" cy="334" r="2"></circle><circle cx="439" cy="328" r="2"></circle><circle cx="459" cy="327" r="2"></circle><circle cx="479" cy="331" r="2"></circle><circle cx="500" cy="323" r="2"></circle><circle cx="520" cy="320" r="2"></circle><circle cx="540" cy="317" r="2"></circle><circle cx="561" cy="312" r="2"></circle><circle cx="581" cy="308" r="2"></circle><circle cx="601" cy="301" r="2"></circle><circle cx="622" cy="296" r="2"></circle></g></g><g class="key-World_5"><path stroke="#883039" stroke-linecap="round" d="M93 415L114 418L134 422L154 423L175 423L195 416L215 419L236 418L256 418L276 423L296 418L317 417L337 417L357 412L378 398L398 386L418 378L439 370L459 365L479 366L500 352L520 345L540 345L561 344L581 343L601 345L622 349" fill="none" stroke-width="1.5"></path><g fill="#883039"><circle cx="93" cy="415" r="2"></circle><circle cx="114" cy="418" r="2"></circle><circle cx="134" cy="422" r="2"></circle><circle cx="154" cy="423" r="2"></circle><circle cx="175" cy="423" r="2"></circle><circle cx="195" cy="416" r="2"></circle><circle cx="215" cy="419" r="2"></circle><circle cx="236" cy="418" r="2"></circle><circle cx="256" cy="418" r="2"></circle><circle cx="276" cy="423" r="2"></circle><circle cx="296" cy="418" r="2"></circle><circle cx="317" cy="417" r="2"></circle><circle cx="337" cy="417" r="2"></circle><circle cx="357" cy="412" r="2"></circle><circle cx="378" cy="398" r="2"></circle><circle cx="398" cy="386" r="2"></circle><circle cx="418" cy="378" r="2"></circle><circle cx="439" cy="370" r="2"></circle><circle cx="459" cy="365" r="2"></circle><circle cx="479" cy="366" r="2"></circle><circle cx="500" cy="352" r="2"></circle><circle cx="520" cy="345" r="2"></circle><circle cx="540" cy="345" r="2"></circle><circle cx="561" cy="344" r="2"></circle><circle cx="581" cy="343" r="2"></circle><circle cx="601" cy="345" r="2"></circle><circle cx="622" cy="349" r="2"></circle></g></g><g class="key-World_6"><path stroke="#3C4E66" stroke-linecap="round" d="M93 530L114 528L134 529L154 529L175 529L195 529L215 528L236 529L256 530L276 530L296 530L317 531L337 530L357 530L378 530L398 528L418 529L439 528L459 528L479 528L500 529L520 528L540 528L561 528L581 528L601 528L622 528" fill="none" stroke-width="1.5"></path><g fill="#3C4E66"><circle cx="93" cy="530" r="2"></circle><circle cx="114" cy="528" r="2"></circle><circle cx="134" cy="529" r="2"></circle><circle cx="154" cy="529" r="2"></circle><circle cx="175" cy="529" r="2"></circle><circle cx="195" cy="529" r="2"></circle><circle cx="215" cy="528" r="2"></circle><circle cx="236" cy="529" r="2"></circle><circle cx="256" cy="530" r="2"></circle><circle cx="276" cy="530" r="2"></circle><circle cx="296" cy="530" r="2"></circle><circle cx="317" cy="531" r="2"></circle><circle cx="337" cy="530" r="2"></circle><circle cx="357" cy="530" r="2"></circle><circle cx="378" cy="530" r="2"></circle><circle cx="398" cy="528" r="2"></circle><circle cx="418" cy="529" r="2"></circle><circle cx="439" cy="528" r="2"></circle><circle cx="459" cy="528" r="2"></circle><circle cx="479" cy="528" r="2"></circle><circle cx="500" cy="529" r="2"></circle><circle cx="520" cy="528" r="2"></circle><circle cx="540" cy="528" r="2"></circle><circle cx="561" cy="528" r="2"></circle><circle cx="581" cy="528" r="2"></circle><circle cx="601" cy="528" r="2"></circle><circle cx="622" cy="528" r="2"></circle></g></g><g class="key-World_7"><path stroke="#4C6A9C" stroke-linecap="round" d="M93 274L114 269L134 264L154 263L175 260L195 254L215 243L236 235L256 228L276 227L296 214L317 206L337 201L357 182L378 170L398 158L418 143L439 126L459 126L479 132L500 105L520 87L540 78L561 70L581 72L601 78L622 79" fill="none" stroke-width="1.5"></path><g fill="#4C6A9C"><circle cx="93" cy="274" r="2"></circle><circle cx="114" cy="269" r="2"></circle><circle cx="134" cy="264" r="2"></circle><circle cx="154" cy="263" r="2"></circle><circle cx="175" cy="260" r="2"></circle><circle cx="195" cy="254" r="2"></circle><circle cx="215" cy="243" r="2"></circle><circle cx="236" cy="235" r="2"></circle><circle cx="256" cy="228" r="2"></circle><circle cx="276" cy="227" r="2"></circle><circle cx="296" cy="214" r="2"></circle><circle cx="317" cy="206" r="2"></circle><circle cx="337" cy="201" r="2"></circle><circle cx="357" cy="182" r="2"></circle><circle cx="378" cy="170" r="2"></circle><circle cx="398" cy="158" r="2"></circle><circle cx="418" cy="143" r="2"></circle><circle cx="439" cy="126" r="2"></circle><circle cx="459" cy="126" r="2"></circle><circle cx="479" cy="132" r="2"></circle><circle cx="500" cy="105" r="2"></circle><circle cx="520" cy="87" r="2"></circle><circle cx="540" cy="78" r="2"></circle><circle cx="561" cy="70" r="2"></circle><circle cx="581" cy="72" r="2"></circle><circle cx="601" cy="78" r="2"></circle><circle cx="622" cy="79" r="2"></circle></g></g></g></g></g><g class="SourcesFooter" style="fill:#777"><g class="clickable" style="fill:#777"><text font-size="12.60" x="15.0" y="581.6"><tspan x="15" y="581.58">Source: CAIT Climate Data Explorer via. Climate Watch</tspan></text></g><text font-size="12.60" x="431.9" y="581.6"><tspan x="431.926" y="581.58"><a style="fill: #777;" href="https://ourworldindata.org/co2-and-other-greenhouse-gas-emissions">OurWorldInData.org/co2-and-other-greenhouse-gas-emissions</a> • <a style="fill: #777;" class="cclogo" href="http://creativecommons.org/licenses/by/4.0/deed.en_US">CC BY</a></tspan></text></g></svg> 